<svg width="37" height="41" viewBox="0 0 37 41" fill="none" xmlns="http://www.w3.org/2000/svg">
<g id="Vector">
<mask id="path-1-inside-1_389_491" fill="white">
<path d="M18.5 0.5L0.404785 10.0238V13.8333H36.5953V10.0238M27.0715 17.6429V30.9762H32.7857V17.6429M0.404785 40.5H36.5953V34.7857H0.404785M15.6429 17.6429V30.9762H21.3572V17.6429M4.21431 17.6429V30.9762H9.92859V17.6429H4.21431Z"/>
</mask>
<path d="M18.5 0.5L0.404785 10.0238V13.8333H36.5953V10.0238M27.0715 17.6429V30.9762H32.7857V17.6429M0.404785 40.5H36.5953V34.7857H0.404785M15.6429 17.6429V30.9762H21.3572V17.6429M4.21431 17.6429V30.9762H9.92859V17.6429H4.21431Z" fill="#008EBA"/>
<path d="M0.404785 10.0238L-0.0609613 9.13889L-0.595215 9.42008V10.0238H0.404785ZM0.404785 13.8333H-0.595215V14.8333H0.404785V13.8333ZM36.5953 13.8333V14.8333H37.5953V13.8333H36.5953ZM27.0715 30.9762H26.0715V31.9762H27.0715V30.9762ZM32.7857 30.9762V31.9762H33.7857V30.9762H32.7857ZM36.5953 40.5V41.5H37.5953V40.5H36.5953ZM36.5953 34.7857H37.5953V33.7857H36.5953V34.7857ZM15.6429 30.9762H14.6429V31.9762H15.6429V30.9762ZM21.3572 30.9762V31.9762H22.3572V30.9762H21.3572ZM4.21431 17.6429V16.6429H3.21431V17.6429H4.21431ZM4.21431 30.9762H3.21431V31.9762H4.21431V30.9762ZM9.92859 30.9762V31.9762H10.9286V30.9762H9.92859ZM9.92859 17.6429H10.9286V16.6429H9.92859V17.6429ZM18.0343 -0.384918L-0.0609613 9.13889L0.870532 10.9087L18.9658 1.38492L18.0343 -0.384918ZM-0.595215 10.0238V13.8333H1.40479V10.0238H-0.595215ZM0.404785 14.8333H36.5953V12.8333H0.404785V14.8333ZM37.5953 13.8333V10.0238H35.5953V13.8333H37.5953ZM26.0715 17.6429V30.9762H28.0715V17.6429H26.0715ZM27.0715 31.9762H32.7857V29.9762H27.0715V31.9762ZM33.7857 30.9762V17.6429H31.7857V30.9762H33.7857ZM0.404785 41.5H36.5953V39.5H0.404785V41.5ZM37.5953 40.5V34.7857H35.5953V40.5H37.5953ZM36.5953 33.7857H0.404785V35.7857H36.5953V33.7857ZM14.6429 17.6429V30.9762H16.6429V17.6429H14.6429ZM15.6429 31.9762H21.3572V29.9762H15.6429V31.9762ZM22.3572 30.9762V17.6429H20.3572V30.9762H22.3572ZM3.21431 17.6429V30.9762H5.21431V17.6429H3.21431ZM4.21431 31.9762H9.92859V29.9762H4.21431V31.9762ZM10.9286 30.9762V17.6429H8.92859V30.9762H10.9286ZM9.92859 16.6429H4.21431V18.6429H9.92859V16.6429Z" fill="#008EBA" mask="url(#path-1-inside-1_389_491)"/>
</g>
</svg>
