<svg width="29" height="41" viewBox="0 0 29 41" fill="none" xmlns="http://www.w3.org/2000/svg">
<path id="Vector" d="M5.55577 32.1111H5.05577H1.11133V35.5556H7.278H7.778V36.0556V40H11.2224V36.0556V35.5556H11.7224H16.1669H16.6669V36.0556V40H20.1113V35.9422V35.5015L20.5486 35.4462C24.6793 34.9235 27.8891 31.4275 27.8891 27.1667C27.8891 24.4026 26.5287 21.9613 24.4482 20.4293L23.9841 20.0876L24.3879 19.6764C25.919 18.1168 26.7772 16.0189 26.778 13.8333L5.55577 32.1111ZM5.55577 32.1111V31.6111V22.7222V9.38889V8.88889H5.05577H1.11133M5.55577 32.1111L1.11133 8.88889M1.11133 8.88889V5.44444H7.278H7.778V4.94444V1H11.2224V4.94444V5.44444H11.7224H16.1669H16.6669V4.94444V1H20.1113V5.26V5.64672L20.4856 5.74394C24.0984 6.68231 26.7779 9.94109 26.778 13.8332L1.11133 8.88889ZM9.00022 31.6111V32.1111H9.50022H19.5002C22.2275 32.1111 24.4447 29.8939 24.4447 27.1667C24.4447 24.4394 22.2275 22.2222 19.5002 22.2222H9.50022H9.00022V22.7222V31.6111ZM9.50022 8.88889H9.00022V9.38889V18.2778V18.7778H9.50022H18.3891C21.1164 18.7778 23.3336 16.5606 23.3336 13.8333C23.3336 11.1061 21.1164 8.88889 18.3891 8.88889H9.50022Z" fill="#008EBA" stroke="#008EBA"/>
</svg>
